<?xml version="1.0" encoding="UTF-8"?>
<svg version="1.1" xmlns="http://www.w3.org/2000/svg" width="1655" height="642">
<path d="M0 0 C0.86625 0.7425 1.7325 1.485 2.625 2.25 C3.42550781 2.8584375 4.22601563 3.466875 5.05078125 4.09375 C34.94097493 29.13075594 40.30325639 87.73997274 45.625 124.25 C45.75132812 125.11353088 45.87765625 125.97706177 46.0078125 126.86676025 C49.86529463 153.47314048 52.32346843 180.11631266 54 206.9375 C54.04309547 207.62275253 54.08619095 208.30800507 54.13059235 209.01402283 C54.41896244 213.61676834 54.69379311 218.22018352 54.9609375 222.82421875 C55.06356903 224.54958107 55.06356903 224.54958107 55.16827393 226.30979919 C55.60934276 234.29599374 55.69707418 242.25254575 55.625 250.25 C56.21370377 250.01713287 56.80240753 249.78426575 57.40895081 249.54434204 C78.67866003 241.17785334 78.67866003 241.17785334 89.625 243.25 C95.33229411 246.17265417 98.23837989 249.71801783 100.3125 255.75 C101.88517702 260.74039413 102.75143234 265.41794544 102.7578125 270.66015625 C102.76014893 271.71920166 102.76248535 272.77824707 102.76489258 273.86938477 C102.73839036 279.99661079 102.69102293 286.12307223 102.625 292.25 C102.61774902 293.5184375 102.61049805 294.786875 102.60302734 296.09375 C102.57476264 299.83427195 102.51107137 303.57262207 102.4375 307.3125 C102.42904053 309.0306189 102.42904053 309.0306189 102.42041016 310.78344727 C102.18584086 319.57979569 100.17051138 326.17810724 94.3359375 332.87890625 C93.56507813 333.51699219 92.79421875 334.15507812 92 334.8125 C91.12859375 335.54855469 90.2571875 336.28460938 89.359375 337.04296875 C88.00585938 338.13544922 88.00585938 338.13544922 86.625 339.25 C85.30242187 340.32701172 85.30242187 340.32701172 83.953125 341.42578125 C82.13781292 342.90268978 80.32006522 344.37660922 78.5 345.84765625 C74.31443395 349.34510614 70.33708964 353.0471993 66.3515625 356.76953125 C63.625 359.25 63.625 359.25 60.8359375 361.38671875 C58.37437464 363.13247594 58.37437464 363.13247594 57.625 366.25 C57.58562737 368.19238307 57.61233425 370.13637922 57.67578125 372.078125 C57.71388916 373.26059814 57.75199707 374.44307129 57.79125977 375.66137695 C57.83951904 376.92812256 57.88777832 378.19486816 57.9375 379.5 C57.98382568 380.7893042 58.03015137 382.0786084 58.07788086 383.40698242 C58.53789862 395.05956951 59.44662783 406.6498093 60.625 418.25 C90.94082992 402.86780977 121.69993807 386.73549564 146.625 363.25 C147.38554688 362.56550781 148.14609375 361.88101562 148.9296875 361.17578125 C158.12449225 352.56957127 164.40826976 341.62719057 169.625 330.25 C170.615 330.25 171.605 330.25 172.625 330.25 C172.73680414 338.62809699 171.9405839 346.66950636 170.87329102 354.96801758 C170.66739661 356.60401281 170.47258365 358.24144381 170.28930664 359.88012695 C168.67315507 374.31222979 164.86257985 386.0697265 155.375 397.4375 C154.90884277 398.01081055 154.44268555 398.58412109 153.96240234 399.17480469 C134.60389631 422.58176633 107.78901616 437.65061331 81.5234375 452.0859375 C78.51618592 453.74287698 75.55330451 455.45597945 72.625 457.25 C75.11308556 466.1194449 81.27319294 472.25273359 89.1875 476.75 C103.99838203 484.5048606 122.93555691 482.48632826 138.47558594 477.93896484 C161.27270477 470.63166483 181.59463606 455.2441113 192.8125 433.875 C197.08010724 425.39542308 199.16351236 416.42691022 201.06591797 407.17260742 C201.625 405.25 201.625 405.25 203.625 402.25 C204.285 402.25 204.945 402.25 205.625 402.25 C206.01171875 403.47976563 206.3984375 404.70953125 206.796875 405.9765625 C207.32242847 407.6095322 207.84849751 409.24233603 208.375 410.875 C208.75398437 412.08736328 208.75398437 412.08736328 209.140625 413.32421875 C211.12298998 419.41999107 213.54521645 425.05365706 218.625 429.25 C223.38142337 430.83547446 227.07088255 430.94776702 231.6875 428.875 C242.13222242 419.54141827 245.35863288 404.23628225 248.8125 391.25 C249.51140169 388.64503157 250.21430459 386.04119091 250.91796875 383.4375 C251.2224292 382.29667969 251.52688965 381.15585937 251.84057617 379.98046875 C252.625 377.25 252.625 377.25 253.625 375.25 C254.615 375.58 255.605 375.91 256.625 376.25 C256.88023437 377.80847656 256.88023437 377.80847656 257.140625 379.3984375 C259.02687771 391.25456167 259.02687771 391.25456167 263.625 402.25 C267.27184291 404.68122861 268.86535817 404.69271856 273.0859375 404.1015625 C280.68645415 401.55246615 286.47657195 394.17179159 290.19921875 387.32421875 C298.42278342 369.59286151 302.88865452 350.56219038 306.25 331.375 C308.52789213 318.69340171 308.52789213 318.69340171 311.625 313.25 C313.75390625 311.9609375 313.75390625 311.9609375 315.625 311.25 C316.18071442 318.25817629 315.26451267 324.47607544 313.625 331.25 C310.62252183 343.15437186 310.62252183 343.15437186 313.375 354.75 C317.3943328 359.21592533 320.30440474 361.01794047 326.375 361.625 C346.11287196 361.24359185 365.32806965 346.36426279 380.625 335.25 C381.34059082 334.73050781 382.05618164 334.21101563 382.79345703 333.67578125 C384.97344794 332.08472979 387.14513713 330.48320418 389.3125 328.875 C389.9720166 328.38725098 390.6315332 327.89950195 391.31103516 327.39697266 C399.35534849 321.60685526 399.35534849 321.60685526 402.97900391 312.67773438 C403.06843262 311.97970703 403.15786133 311.28167969 403.25 310.5625 C403.41701416 309.46711914 403.41701416 309.46711914 403.58740234 308.34960938 C403.82396729 306.79626524 404.0524428 305.24167082 404.2734375 303.68603516 C404.75599479 300.34231526 405.29844942 297.00961241 405.84912109 293.67651367 C406.11330654 292.07740336 406.37159036 290.4773052 406.62353516 288.8762207 C407.51293494 283.36206506 407.51293494 283.36206506 408.625 282.25 C410.53156914 281.95488518 412.43908164 281.66488257 414.3503418 281.40185547 C436.58271183 278.25779256 453.20903732 267.06822443 470.71142578 253.70458984 C473.67608058 251.45102857 476.6622089 249.23395711 479.6875 247.0625 C481.15896484 245.98935547 481.15896484 245.98935547 482.66015625 244.89453125 C486.03472405 243.02273541 488.80461173 242.56955807 492.625 242.25 C492.76149421 250.7039747 492.35094077 259.06889072 491.75 267.5 C491.63205078 269.34078125 491.63205078 269.34078125 491.51171875 271.21875 C490.4705467 286.01941119 490.4705467 286.01941119 486.99609375 290.21875 C486.03896484 290.97671875 486.03896484 290.97671875 485.0625 291.75 C484.34707031 292.33007812 483.63164063 292.91015625 482.89453125 293.5078125 C482.14558594 294.08273437 481.39664063 294.65765625 480.625 295.25 C479.90699219 295.80429687 479.18898438 296.35859375 478.44921875 296.9296875 C476.9579232 298.079283 475.46570526 299.22768275 473.97265625 300.375 C469.68159467 303.80213737 465.6746432 307.54407652 461.625 311.25 C459.98046097 312.73060555 458.33462842 314.20977561 456.6875 315.6875 C454.09173866 318.01962933 451.50549569 320.35995091 448.9375 322.72265625 C444.45120921 326.84571043 439.93219125 330.86311524 435.1875 334.6875 C431.19270594 337.90947472 427.37995469 341.25704697 423.625 344.75 C419.12009538 348.93148294 414.49746095 352.90627961 409.70703125 356.7578125 C407.39335882 358.62869084 405.10313421 360.51731879 402.82421875 362.4296875 C347.8241963 408.48015632 347.8241963 408.48015632 321.0625 408.5625 C319.80308594 408.57925781 318.54367187 408.59601563 317.24609375 408.61328125 C310.07199956 407.89355012 306.31824009 404.27847153 301.625 399.25 C299.56615793 404.10937879 297.68679149 409.01101401 296.01171875 414.015625 C291.10037568 428.67215767 286.03916471 441.30722353 272.625 450.25 C267.34977565 452.00840812 262.786138 452.87340519 257.375 451.3125 C252.22533642 447.45025232 249.93769011 442.11890521 247.625 436.25 C247.40884033 436.92466309 247.19268066 437.59932617 246.9699707 438.29443359 C245.96739429 441.4073468 244.95253078 444.51612657 243.9375 447.625 C243.59783203 448.68589844 243.25816406 449.74679687 242.90820312 450.83984375 C236.2173938 471.22492636 236.2173938 471.22492636 226.74609375 476.24609375 C221.65688975 478.486937 218.019752 478.55518194 212.625 477.25 C206.05161172 474.23719704 202.56998368 468.05733639 198.625 462.25 C196.85600364 464.90349455 195.77958089 467.32142821 194.6730957 470.2878418 C186.03153987 493.3386829 168.60000473 509.99138325 146.55859375 520.39794922 C141.06493929 522.81876413 135.39070102 524.59303452 129.625 526.25 C128.46484375 526.60191406 128.46484375 526.60191406 127.28125 526.9609375 C110.83466173 531.325609 92.54879715 530.29526869 77.64453125 522.08203125 C61.01676779 511.99351759 55.81408105 494.24289873 51.3125 476.3125 C50.73919281 473.96067725 50.17926845 471.60641503 49.625 469.25 C44.27106496 471.77700629 38.92061132 474.31123093 33.57275391 476.85107422 C31.59650653 477.78894878 29.61961046 478.72545759 27.64208984 479.66064453 C-2.55708022 493.95171343 -30.72139466 508.35437671 -55.375 531.25 C-55.97957031 531.80042969 -56.58414062 532.35085938 -57.20703125 532.91796875 C-85.50827561 559.76106937 -100.4586364 601.83576643 -107.375 639.25 C-108.695 639.25 -110.015 639.25 -111.375 639.25 C-107.85328426 587.26641339 -96.47149777 534.528531 -61.375 494.25 C-60.54484375 493.28578125 -59.7146875 492.3215625 -58.859375 491.328125 C-33.2598003 462.14536919 2.70041905 446.50118517 36.84375 429.66259766 C37.75125 429.21319824 38.65875 428.76379883 39.59375 428.30078125 C40.36138672 427.92219971 41.12902344 427.54361816 41.91992188 427.15356445 C43.60584989 426.36705089 43.60584989 426.36705089 44.625 425.25 C44.71819449 423.7151703 44.742458 422.17607918 44.73852539 420.63842773 C44.73841209 419.16701576 44.73841209 419.16701576 44.73829651 417.6658783 C44.73313522 416.5992244 44.72797394 415.5325705 44.72265625 414.43359375 C44.7212413 413.3474025 44.71982635 412.26121124 44.71836853 411.1421051 C44.71275048 407.65720925 44.70019492 404.17237658 44.6875 400.6875 C44.68248733 398.33138113 44.67792402 395.97526126 44.67382812 393.61914062 C44.66277519 387.82940536 44.64601951 382.03970719 44.625 376.25 C42.88946298 377.49004811 41.15699337 378.73438984 39.42578125 379.98046875 C38.46067627 380.67293701 37.49557129 381.36540527 36.5012207 382.07885742 C33.79679041 384.12032238 31.2993335 386.2637742 28.8125 388.5625 C24.3884299 392.64356466 19.75863181 396.34430339 15.00415039 400.02490234 C10.9910238 403.14352058 7.09835856 406.36855158 3.25 409.6875 C-2.09061051 414.27533563 -7.64023278 418.51705503 -13.29907227 422.70336914 C-17.84842369 426.07729524 -22.29004864 429.55598546 -26.6875 433.125 C-40.06545352 443.92958756 -54.0691841 453.86570407 -68.30078125 463.5078125 C-68.9963916 463.98508789 -69.69200195 464.46236328 -70.40869141 464.95410156 C-72.17054869 466.11525608 -74.01005183 467.15652705 -75.85546875 468.1796875 C-78.6838886 470.06374891 -78.6838886 470.06374891 -79.04663086 473.44677734 C-79.36196169 477.09898825 -79.35735343 480.51508375 -79.1484375 484.171875 C-79.0865625 485.44417969 -79.0246875 486.71648437 -78.9609375 488.02734375 C-78.85489557 490.02446683 -78.74872443 492.02160621 -78.63085938 494.01806641 C-78.51879768 495.9644261 -78.42706953 497.91192312 -78.3359375 499.859375 C-78.27196777 501.01405273 -78.20799805 502.16873047 -78.14208984 503.35839844 C-78.375 506.25 -78.375 506.25 -79.87744141 508.14941406 C-80.37163574 508.51260742 -80.86583008 508.87580078 -81.375 509.25 C-83.22779829 501.90887065 -83.96897473 494.73067044 -84.5 487.1875 C-84.58636719 486.03572266 -84.67273438 484.88394531 -84.76171875 483.69726562 C-84.97199593 480.88188777 -85.17628364 478.06621341 -85.375 475.25 C-86.43976563 475.8790625 -87.50453125 476.508125 -88.6015625 477.15625 C-93.18774816 479.8626421 -97.77970912 482.55909987 -102.375 485.25 C-102.99310547 485.61222656 -103.61121094 485.97445313 -104.24804688 486.34765625 C-143.5880893 509.32981162 -191.76425437 532.89695464 -238.375 521.25 C-252.336227 517.14558583 -264.11891306 509.47084265 -274.375 499.25 C-275.08398438 498.56421875 -275.79296875 497.8784375 -276.5234375 497.171875 C-289.00855848 484.25623261 -293.59130244 466.66027315 -293.546875 449.08984375 C-293.54524353 448.31938217 -293.54361206 447.54892059 -293.54193115 446.75511169 C-293.4453555 437.06662577 -292.54539077 427.45128081 -291.625 417.8125 C-291.49260925 416.382547 -291.49260925 416.382547 -291.35754395 414.92370605 C-289.90541844 399.27258342 -288.01913932 383.74924755 -285.375 368.25 C-286.66857422 369.06791016 -286.66857422 369.06791016 -287.98828125 369.90234375 C-300.99758479 377.98994194 -314.68960636 384.81716023 -329.125 389.984375 C-332.10869947 391.66270595 -332.88512533 393.16776975 -334.375 396.25 C-334.72621714 398.83482862 -334.92960516 401.21458526 -335 403.8046875 C-335.03180862 404.53455368 -335.06361725 405.26441986 -335.09638977 406.0164032 C-335.1641577 407.57696541 -335.22640482 409.13777552 -335.28359985 410.69876099 C-335.43759699 414.78665235 -335.64569803 418.87167601 -335.85546875 422.95703125 C-335.91712471 424.16766487 -335.91712471 424.16766487 -335.98002625 425.40275574 C-337.64509713 456.7440064 -344.60053802 490.78048276 -368.375 513.25 C-376.50503429 519.98382088 -386.03931661 524.0250292 -396.6796875 523.5703125 C-406.97873034 522.34636828 -415.21815832 518.15907206 -422.05078125 510.38671875 C-426.63094509 502.99630689 -426.91997307 496.06182616 -426.875 487.5625 C-426.87072998 486.31662109 -426.86645996 485.07074219 -426.86206055 483.78710938 C-426.31997499 452.51087981 -423.38738889 412.36995804 -401.375 388.25 C-400.68664062 387.49332031 -399.99828125 386.73664063 -399.2890625 385.95703125 C-388.74214655 374.91052455 -375.43017484 367.99346847 -362.046875 360.96875 C-361.35682373 360.60579834 -360.66677246 360.24284668 -359.95581055 359.86889648 C-358.63487788 359.17751198 -357.31091157 358.49188528 -355.98364258 357.81274414 C-352.57292844 356.17991208 -352.57292844 356.17991208 -350.375 353.25 C-350.15212919 351.22053881 -349.98260065 349.18510257 -349.83984375 347.1484375 C-349.75283203 345.93671875 -349.66582031 344.725 -349.57617188 343.4765625 C-349.48916016 342.20554687 -349.40214844 340.93453125 -349.3125 339.625 C-349.22162109 338.34625 -349.13074219 337.0675 -349.03710938 335.75 C-348.81262438 332.58358006 -348.59209077 329.41693409 -348.375 326.25 C-347.055 326.25 -345.735 326.25 -344.375 326.25 C-342.725 333.84 -341.075 341.43 -339.375 349.25 C-309.88357885 336.52821048 -283.19614835 324.02714992 -259.83251953 301.62255859 C-258.532506 300.39832475 -257.18874151 299.22093446 -255.83984375 298.05078125 C-246.55212855 289.6870583 -241.15643148 277.30286975 -238.375 265.25 C-237.055 265.58 -235.735 265.91 -234.375 266.25 C-240.43628947 326.50233566 -240.43628947 326.50233566 -256.375 342.25 C-257.13554687 343.03246094 -257.89609375 343.81492187 -258.6796875 344.62109375 C-260.75429132 346.64458414 -262.84022599 348.53404043 -265.0390625 350.4140625 C-265.68617188 350.97996094 -266.33328125 351.54585938 -267 352.12890625 C-268.32626627 353.28679887 -269.66748361 354.42780013 -271.0234375 355.55078125 C-280.00473931 363.54413986 -280.11881964 375.76756997 -281.73754883 387.05688477 C-282.06267012 389.31368089 -282.40271614 391.567885 -282.74414062 393.82226562 C-285.42059018 411.88802051 -284.91351132 428.44909701 -274.375 444.25 C-271.06256805 448.59987697 -267.28050038 452.43572299 -263.375 456.25 C-262.72917969 456.91644531 -262.08335937 457.58289063 -261.41796875 458.26953125 C-250.46880427 468.83702551 -233.48718947 475.58935784 -218.375 476.25 C-217.40949219 476.3015625 -216.44398438 476.353125 -215.44921875 476.40625 C-184.16394067 477.27227846 -152.57410152 464.74306743 -125.38085938 450.30810547 C-123.15481657 449.13385163 -120.91435231 447.99019572 -118.671875 446.84765625 C-103.09330387 439.44784872 -103.09330387 439.44784872 -89.375 429.25 C-88.70835174 421.12619333 -89.95450129 413.22762222 -91.375 405.25 C-91.9827124 405.55703857 -92.5904248 405.86407715 -93.21655273 406.18041992 C-116.36262167 417.78942596 -141.6957712 428.67073469 -167.85546875 420.47265625 C-178.07892769 416.37271488 -185.28701932 408.43226817 -189.59765625 398.40625 C-191.95198812 392.12803167 -193.49983234 386.4361835 -193.5078125 379.69921875 C-193.51119629 378.07947144 -193.51119629 378.07947144 -193.51464844 376.42700195 C-193.50981445 375.27546631 -193.50498047 374.12393066 -193.5 372.9375 C-193.49516602 371.74793701 -193.49033203 370.55837402 -193.48535156 369.33276367 C-193.46087012 365.63826957 -193.42119082 361.94428302 -193.375 358.25 C-193.36243164 357.10047852 -193.34986328 355.95095703 -193.33691406 354.76660156 C-193.29072876 351.53080257 -193.21397501 348.29737718 -193.125 345.0625 C-193.11098145 344.09078857 -193.09696289 343.11907715 -193.08251953 342.11791992 C-192.71492761 331.68361296 -188.04152214 325.34914397 -181.6875 317.375 C-181.06391602 316.58706055 -180.44033203 315.79912109 -179.79785156 314.98730469 C-178.00164137 312.73205268 -176.19170019 310.48876186 -174.375 308.25 C-173.92366699 307.68829102 -173.47233398 307.12658203 -173.00732422 306.54785156 C-166.52531115 298.55820938 -158.79595696 292.01626389 -148.375 290.25 C-137.40060002 289.32584 -129.44839902 290.62259864 -120.86450195 297.75341797 C-113.83738411 303.96363475 -108.91232851 311.10227856 -104.375 319.25 C-104.01921875 319.88067383 -103.6634375 320.51134766 -103.296875 321.16113281 C-97.74022652 331.16209344 -91.375 343.57541329 -91.375 355.25 C-72.14530232 347.3745208 -55.1542783 331.26894627 -39.46484375 317.875 C-34.83072525 313.92394104 -30.09882499 310.09287672 -25.375 306.25 C-23.64549133 304.83375089 -21.91633183 303.41707527 -20.1875 302 C-19.27613281 301.25621094 -18.36476563 300.51242187 -17.42578125 299.74609375 C-15.20903295 297.93239059 -12.99901892 296.11175879 -10.79296875 294.28515625 C31.68352106 259.25 31.68352106 259.25 40.625 259.25 C42.0191356 216.18670048 35.12548926 172.35642611 26.625 130.25 C26.29145508 128.59750244 26.29145508 128.59750244 25.95117188 126.91162109 C17.07762302 82.93596586 17.07762302 82.93596586 -8.3046875 47.85546875 C-13.30521016 44.9466044 -16.80044188 44.85636047 -22.375 46.25 C-23.73865283 47.20824253 -25.08294169 48.19721175 -26.375 49.25 C-27.365 48.92 -28.355 48.59 -29.375 48.25 C-28.82759686 39.1736087 -27.80076101 30.22031288 -26.38305664 21.24438477 C-26.05827645 19.16039913 -25.75682537 17.07375769 -25.45507812 14.98632812 C-25.2462117 13.64561134 -25.03597662 12.30510689 -24.82421875 10.96484375 C-24.64205811 9.76980225 -24.45989746 8.57476074 -24.2722168 7.34350586 C-23.26446146 3.86887515 -22.16514414 2.49421762 -19.375 0.25 C-13.24970298 -2.86725002 -6.10108194 -3.16352397 0 0 Z M58.625 296.25 C56.44509873 298.015535 56.44509873 298.015535 56.39794922 300.22119141 C56.40842285 301.00671387 56.41889648 301.79223633 56.4296875 302.6015625 C56.43613281 303.45234375 56.44257813 304.303125 56.44921875 305.1796875 C56.46597656 306.06914062 56.48273438 306.95859375 56.5 307.875 C56.50902344 308.7721875 56.51804687 309.669375 56.52734375 310.59375 C56.5509503 312.81276586 56.5838769 315.03125077 56.625 317.25 C62.1094327 313.3021764 67.17092881 309.05481774 72.16015625 304.49609375 C75.04385735 301.86831541 77.98205664 299.30882788 80.93359375 296.7578125 C83.36683045 294.59225401 83.36683045 294.59225401 85.625 292.25 C85.625 291.59 85.625 290.93 85.625 290.25 C76.90145938 287.52018457 66.48162737 292.68711084 58.625 296.25 Z M-9.66455078 341.83496094 C-12.03732566 343.79793599 -14.42543049 345.74194861 -16.8125 347.6875 C-18.66728118 349.20758382 -20.52137165 350.72851059 -22.375 352.25 C-23.00519043 352.76675293 -23.63538086 353.28350586 -24.28466797 353.81591797 C-26.44072646 355.58446115 -28.5955894 357.3544498 -30.75 359.125 C-31.48613525 359.72948975 -32.22227051 360.33397949 -32.98071289 360.95678711 C-36.24271961 363.64210539 -39.49407531 366.33484542 -42.6875 369.1015625 C-54.76895973 379.56655617 -67.63304546 389.1771474 -81.22265625 397.6015625 C-83.60850256 399.42883499 -84.31197214 400.47202712 -85.375 403.25 C-85.46940848 405.7708657 -85.46940848 405.7708657 -85.1328125 408.453125 C-85.03613281 409.4328125 -84.93945312 410.4125 -84.83984375 411.421875 C-84.67162109 412.94554687 -84.67162109 412.94554687 -84.5 414.5 C-84.39558594 415.53125 -84.29117187 416.5625 -84.18359375 417.625 C-83.92458962 420.16794966 -83.65469737 422.70925702 -83.375 425.25 C-64.13041987 417.73821947 -46.8988232 401.47724518 -30.69140625 389.02734375 C-28.70433463 387.50269352 -26.71315918 385.98377738 -24.71875 384.46875 C-16.74440326 378.38929754 -8.95806754 372.09428997 -1.19970703 365.74267578 C0.40723696 364.42813798 2.01779191 363.11801698 3.62890625 361.80859375 C7.37119569 358.76355766 11.10038847 355.70780841 14.765625 352.5703125 C15.86451898 351.63013311 16.96347799 350.69002973 18.0625 349.75 C18.60422852 349.28609863 19.14595703 348.82219727 19.70410156 348.34423828 C23.38135884 345.22437348 27.16313676 342.33765542 31.0625 339.5 C36.60195577 335.40943755 42.16888949 330.9070597 44.625 324.25 C44.88836638 321.37055249 44.85855054 318.5140657 44.8125 315.625 C44.81185547 314.84898437 44.81121094 314.07296875 44.81054688 313.2734375 C44.87070025 309.12859127 44.87070025 309.12859127 43.625 305.25 C27.50638945 305.25 2.3470251 331.88931264 -9.66455078 341.83496094 Z M-146.375 338.25 C-147.01179688 338.47300781 -147.64859375 338.69601562 -148.3046875 338.92578125 C-159.87915889 343.82982435 -169.23560756 356.64218125 -175.375 367.25 C-167.18101112 374.89772295 -156.57974129 376.58491379 -145.7734375 376.46484375 C-132.31950946 375.61430807 -116.71999068 371.72109142 -105.375 364.25 C-106.57066528 355.63507839 -113.67429842 347.53790306 -120.375 342.25 C-128.92228584 336.85540156 -136.67272676 334.8066442 -146.375 338.25 Z M-360 404.125 C-360.61247589 404.4203363 -361.22495178 404.71567261 -361.85598755 405.0199585 C-377.05033172 412.37955934 -390.45469012 420.18735807 -402.375 432.25 C-403.13554687 433.00023437 -403.89609375 433.75046875 -404.6796875 434.5234375 C-410.35466645 440.45539662 -415.89262165 447.98348572 -416.66015625 456.36328125 C-416.07824031 462.25418367 -412.30780832 466.63851089 -408.0625 470.5625 C-400.86206676 476.23322747 -393.40459042 477.2779482 -384.375 476.25 C-372.00977199 473.21736014 -363.91962504 464.73641641 -357.375 454.25 C-347.60628397 437.85325818 -339.67279561 420.71094808 -344.375 401.25 C-344.87 399.765 -344.87 399.765 -345.375 398.25 C-350.3764253 398.25 -355.53253794 401.97022715 -360 404.125 Z " fill="#000000" transform="translate(426.375,1.75)"/>
<path d="M0 0 C0.99 0 1.98 0 3 0 C3.78696765 30.28251536 -8.24651221 64.89367073 -28 88 C-29.02287109 89.26070312 -29.02287109 89.26070312 -30.06640625 90.546875 C-36.85483789 98.56183901 -45.66415157 107.04690045 -56 110 C-60.38095238 109.61904762 -60.38095238 109.61904762 -62 108 C-62.07319621 105.30345146 -62.09242537 102.63308542 -62.0625 99.9375 C-62.05798828 99.17888672 -62.05347656 98.42027344 -62.04882812 97.63867188 C-62.0370068 95.75908129 -62.01907078 93.87953101 -62 92 C-64.21079684 94.35186328 -66.41816736 96.70691707 -68.625 99.0625 C-69.24246094 99.71927734 -69.85992188 100.37605469 -70.49609375 101.05273438 C-73.46383669 104.22353341 -76.37397624 107.41339038 -79.1640625 110.7421875 C-87.62569669 120.70344108 -100.64029273 129.86141616 -113.87890625 131.31640625 C-122.52326272 131.65864769 -129.0229758 129.65134946 -136.1875 124.875 C-142.99280845 118.54492259 -147.34066066 109.87776126 -151.71606445 101.79760742 C-155.98027098 93.98620201 -160.08817195 86.97060935 -169 84 C-183.63696862 82.44523854 -197.43944925 87.08237454 -209 96 C-231.43524744 114.19632972 -249.53339148 142.09655208 -252.73828125 171.17578125 C-252.82464844 172.10777344 -252.91101562 173.03976562 -253 174 C-247.56817099 171.40086682 -242.6117492 168.58096006 -237.6875 165.125 C-236.67151733 164.42032593 -236.67151733 164.42032593 -235.63500977 163.70141602 C-230.16234633 159.87881434 -224.79693663 155.91652484 -219.4375 151.9375 C-179.74475374 122.53117843 -179.74475374 122.53117843 -158.41015625 125.421875 C-153.78089755 126.53229686 -150.41541094 128.49022833 -147.125 132 C-142.1616153 140.82379502 -145.22225405 153.96441598 -146.3125 163.5 C-146.48942383 165.19962891 -146.48942383 165.19962891 -146.66992188 166.93359375 C-147.83784303 177.3909801 -149.65299583 187.48285096 -154.5625 196.875 C-155.07695679 197.87889771 -155.07695679 197.87889771 -155.60180664 198.90307617 C-159.40128617 206.09400896 -164.04817352 212.5688733 -169 219 C-169.66128906 219.88558594 -170.32257812 220.77117187 -171.00390625 221.68359375 C-192.68249302 249.55606246 -222.15021795 269.80953359 -255.27246094 281.67822266 C-263.10521487 284.48899555 -268.64556008 287.64883246 -274.89453125 293.3203125 C-297.69285476 313.69392133 -332.79676588 327.24724876 -363.29296875 326.3203125 C-378.60174966 324.99753059 -391.59847349 320.37667019 -403 310 C-403.83402344 309.25878906 -404.66804688 308.51757812 -405.52734375 307.75390625 C-415.71724271 298.19204421 -421.8391297 286.72461299 -427.875 274.3125 C-428.33962646 273.36286377 -428.80425293 272.41322754 -429.28295898 271.43481445 C-432.27935827 265.09823869 -434.38386119 258.8184482 -436 252 C-436.44053711 252.32572998 -436.88107422 252.65145996 -437.33496094 252.98706055 C-455.18879601 266.14336344 -473.57869396 278.2760942 -493 289 C-493.87462891 289.4832373 -494.74925781 289.96647461 -495.65039062 290.46435547 C-538.03746326 313.6745255 -584.23857574 328.10199121 -632 335 C-633.12374023 335.16516113 -634.24748047 335.33032227 -635.40527344 335.50048828 C-660.47617001 339.01506598 -685.74779725 338.30739832 -711 338 C-711 337.01 -711 336.02 -711 335 C-710.04673828 334.77449463 -709.09347656 334.54898926 -708.11132812 334.31665039 C-655.4502087 321.82543535 -604.38204917 306.43735743 -555 284 C-553.9378125 283.51772949 -552.875625 283.03545898 -551.78125 282.53857422 C-544.16624703 279.07086478 -536.57712204 275.54963246 -529 272 C-527.40575195 271.25532471 -527.40575195 271.25532471 -525.77929688 270.49560547 C-503.36308743 259.99527307 -481.80980474 248.42069158 -461 235 C-460.25556641 234.52755859 -459.51113281 234.05511719 -458.74414062 233.56835938 C-456.728034 232.27901031 -454.73608847 230.95998871 -452.75 229.625 C-451.10257813 228.53058594 -451.10257813 228.53058594 -449.421875 227.4140625 C-446.17566843 224.17832757 -446.013689 222.57212477 -446 218 C-446.48675366 214.20423551 -447.26385703 210.49102698 -448.0625 206.75 C-448.52868848 204.42761308 -448.99207767 202.10466302 -449.453125 199.78125 C-449.70255859 198.5334375 -449.95199219 197.285625 -450.20898438 196 C-460.95603392 141.86870238 -460.95603392 141.86870238 -453 121 C-452.54496094 119.76636719 -452.08992188 118.53273438 -451.62109375 117.26171875 C-450.45094021 114.15797817 -449.24591687 111.07394244 -448 108 C-447.01 108 -446.02 108 -445 108 C-444.89026352 108.69537369 -444.78052704 109.39074738 -444.66746521 110.10719299 C-443.27294842 118.92812737 -441.86206335 127.74637423 -440.4375 136.5625 C-440.32457233 137.26150673 -440.21164467 137.96051346 -440.09529495 138.68070221 C-436.89543613 158.45504971 -433.40577078 178.04497874 -428.57763672 197.49902344 C-427.84808908 200.65772421 -427.37140596 203.78114838 -427 207 C-421.69114376 204.32467087 -417.87727611 200.1798471 -413.75 196 C-412.98856689 195.23179932 -412.22713379 194.46359863 -411.44262695 193.67211914 C-405.90343138 188.03101517 -400.7896091 182.29664705 -396 176 C-395.06190783 174.81324057 -394.12305196 173.62708459 -393.18359375 172.44140625 C-380.40908346 156.10651632 -359.59857309 127.94946724 -360.875 106.0625 C-362.13834415 99.79300708 -365.99565719 93.90160147 -371.08203125 90.03125 C-384.3212722 82.91279865 -399.36751148 86.01431603 -413 90 C-421.97682646 92.97949709 -430.48444986 97.21757534 -439.03564453 101.21875 C-497.35194108 128.46951829 -497.35194108 128.46951829 -515.375 122.875 C-520.41239123 120.6763026 -522.95486672 117.18980306 -525.3125 112.25 C-526.93970949 104.55773694 -525.87989844 96.81769702 -525.125 89.0625 C-525.00753418 87.80046753 -525.00753418 87.80046753 -524.88769531 86.51293945 C-524.76152832 85.31737427 -524.76152832 85.31737427 -524.6328125 84.09765625 C-524.55949707 83.38101807 -524.48618164 82.66437988 -524.41064453 81.92602539 C-524 80 -524 80 -522 77 C-520.68 77 -519.36 77 -518 77 C-517.195625 78.6396875 -517.195625 78.6396875 -516.375 80.3125 C-514.15845624 84.11448826 -512.3024299 85.64553133 -508 87 C-484.429393 89.98841624 -457.51187585 73.20728728 -436.72572327 63.62915039 C-419.97910217 55.91919705 -405.51975589 49.84622269 -386.8125 49.5625 C-385.29716675 49.52866211 -385.29716675 49.52866211 -383.7512207 49.49414062 C-375.59497108 49.52085396 -369.11385381 51.44026874 -362.1875 55.75 C-353.41351143 64.77467395 -351.72399926 76.27959115 -351.86401367 88.51513672 C-352.13404411 95.435091 -352.8091965 102.30633447 -353.5625 109.1875 C-353.64858521 109.97591278 -353.73467041 110.76432556 -353.82336426 111.57662964 C-358.7926423 155.84243533 -379.90704985 199.52009015 -413.6875 229.234375 C-415.7235261 231.97331487 -415.98819996 233.55045403 -416 237 C-414.73707253 240.54190594 -412.99484979 243.77126743 -411.1875 247.0625 C-410.68484619 247.99481445 -410.18219238 248.92712891 -409.66430664 249.88769531 C-399.83950904 267.70160058 -387.20863019 281.9294317 -367.31640625 288.15234375 C-348.38460932 292.99121293 -326.56727165 288.85492019 -309 281 C-309.0319043 280.23631104 -309.06380859 279.47262207 -309.09667969 278.68579102 C-309.3030329 269.78245383 -308.08837864 261.63002595 -306.25 252.9375 C-305.99734375 251.66583984 -305.7446875 250.39417969 -305.484375 249.08398438 C-303.36779844 238.77096507 -300.99276317 228.54749796 -295.4375 219.5 C-294.85871094 218.5409375 -294.27992188 217.581875 -293.68359375 216.59375 C-292.20525026 214.31620922 -290.66386047 212.14430651 -289 210 C-289.28875 209.4225 -289.5775 208.845 -289.875 208.25 C-290.24625 207.5075 -290.6175 206.765 -291 206 C-291.34675781 205.40445313 -291.69351562 204.80890625 -292.05078125 204.1953125 C-296.52779375 193.84106961 -291.62515005 177.70034524 -290 167 C-288.68 167 -287.36 167 -286 167 C-284.61558 168.96498322 -283.28796166 170.97048465 -282 173 C-277.76726 176.90714462 -274.28706633 178.87747859 -268.5 179.1875 C-265.53178425 179.02848844 -262.89303952 178.61922935 -260 178 C-259.86948242 176.89712646 -259.73896484 175.79425293 -259.60449219 174.65795898 C-259.10841529 170.49106774 -258.59792996 166.32603826 -258.08349609 162.16137695 C-257.8645101 160.37277762 -257.64922143 158.58372096 -257.43798828 156.79418945 C-253.23418723 121.26111281 -238.89487739 85.52954236 -210.4375 62.375 C-197.82160933 52.52122866 -181.32700312 45.06150966 -165 47 C-157.90633464 48.31671715 -152.64536256 51.486518 -148 57 C-145.46849679 60.94835236 -143.23409492 65.01453397 -141.01757812 69.14501953 C-139.35541016 72.17504646 -137.56132728 75.11994436 -135.75 78.0625 C-135.12609375 79.08472656 -134.5021875 80.10695313 -133.859375 81.16015625 C-129.86174378 87.26578208 -126.23425716 91.400055 -119.0703125 93.58984375 C-109.03948668 95.57708283 -100.94798198 92.64259759 -92.5 87.3125 C-87.27200887 83.64922452 -82.62279638 79.38910051 -78 75 C-76.85337891 73.91525391 -76.85337891 73.91525391 -75.68359375 72.80859375 C-69.96303511 67.24721587 -64.97167545 61.22956923 -60 55 C-58.39823202 53.03970424 -56.7941095 51.08132974 -55.1875 49.125 C-52.43616831 45.76727281 -49.70660523 42.39390049 -47 39 C-44.525 39.495 -44.525 39.495 -42 40 C-43.65 49.9 -45.3 59.8 -47 70 C-41.46726527 66.54204079 -37.81053163 64.22463475 -33.4375 59.8125 C-32.56996094 58.95269531 -31.70242188 58.09289062 -30.80859375 57.20703125 C-23.96434875 49.73587019 -19.10647591 40.95688187 -14.5 32 C-13.93829102 30.91654297 -13.37658203 29.83308594 -12.79785156 28.71679688 C-8.71334424 20.7084222 -5.22118104 12.60786989 -2.171875 4.15625 C-1 1 -1 1 0 0 Z M-224.76953125 191.46875 C-225.32229736 191.88576172 -225.87506348 192.30277344 -226.44458008 192.73242188 C-228.1129526 194.0920499 -229.61929078 195.34299401 -231 197 C-231.08945247 199.7461909 -231.0342795 202.33051038 -230.875 205.0625 C-230.61274215 212.90145121 -231.81609609 219.53946164 -234.22216797 226.98461914 C-235.56253648 231.14779798 -236.27943217 234.55702856 -236 239 C-216.81057884 229.97265075 -200.52599526 218.47761616 -185 204 C-184.26007812 203.31421875 -183.52015625 202.6284375 -182.7578125 201.921875 C-172.96398675 192.51143744 -162.57578881 180.51110636 -157 168 C-157.18443907 165.2140165 -157.18443907 165.2140165 -158 163 C-181.36627653 154.09856132 -207.47076936 178.41170294 -224.76953125 191.46875 Z M-290.1875 241.3125 C-290.68209717 241.9113501 -291.17669434 242.5102002 -291.6862793 243.12719727 C-294.35778173 246.38990893 -294.35778173 246.38990893 -294.80078125 250.41796875 C-294.53652344 250.94003906 -294.27226563 251.46210938 -294 252 C-281.27004383 254.73907346 -265.48018948 252.4150407 -254 246 C-251.44985936 243.51831952 -249.24399218 240.75876099 -247 238 C-246.47277344 237.3709375 -245.94554687 236.741875 -245.40234375 236.09375 C-243.40248984 233.55354559 -242.03516073 231.72079495 -241.875 228.4375 C-243.72356319 224.43227975 -246.29555183 221.29302965 -249.8125 218.625 C-266.22309859 213.93625755 -280.8957348 229.89140279 -290.1875 241.3125 Z " fill="#000000" transform="translate(1652,180)"/>
<path d="M0 0 C0.99 0.495 0.99 0.495 2 1 C-1.61086438 23.33034552 -15.23086185 38.66434112 -33.09179688 51.66162109 C-36.55412338 54.09003383 -40.12046276 56.35446022 -43.6875 58.625 C-50.13157886 62.72842679 -56.2299485 66.96993887 -62 72 C-62.49371094 72.42812988 -62.98742188 72.85625977 -63.49609375 73.29736328 C-69.34390986 78.39990454 -74.86421438 83.35320169 -79 90 C-77.49373047 89.7834375 -77.49373047 89.7834375 -75.95703125 89.5625 C-60.60451117 87.43807379 -42.23057911 85.14744109 -29 95 C-23.94159702 99.92242441 -21.76638377 104.65212823 -21.62011719 111.72167969 C-21.62172852 112.49415039 -21.62333984 113.26662109 -21.625 114.0625 C-21.62661133 114.89813477 -21.62822266 115.73376953 -21.62988281 116.59472656 C-21.79467258 125.85849636 -22.76045094 135.04539157 -23.75 144.25 C-23.82841125 145.00773712 -23.90682251 145.76547424 -23.98760986 146.5461731 C-25.41413796 160.11395476 -27.23594034 174.27647715 -33.8125 186.4375 C-34.15796875 187.0987085 -34.5034375 187.75991699 -34.859375 188.44116211 C-41.10072431 200.07939245 -49.30572721 209.53122312 -62 214 C-70.68084025 216.60425208 -78.82432858 214.87149053 -86.83984375 211.14453125 C-95.97170876 205.73995808 -101.42711702 192.860473 -104 183 C-107.53861934 166.98919776 -105.01861875 151.05848412 -102.3125 135.125 C-102.17928345 134.33529816 -102.04606689 133.54559631 -101.90881348 132.73196411 C-97.77500551 108.50237116 -89.8678287 87.17362634 -74 68 C-73.46375 67.30132812 -72.9275 66.60265625 -72.375 65.8828125 C-63.65211881 55.02282541 -50.99200402 47.55268487 -39.49560547 40.00390625 C-33.36463175 35.96372587 -27.59499619 31.76025885 -22 27 C-21.19433594 26.39800781 -20.38867188 25.79601562 -19.55859375 25.17578125 C-16.62103881 22.67773834 -14.35576699 19.88456999 -12.0625 16.8125 C-11.6301001 16.24241211 -11.1977002 15.67232422 -10.75219727 15.08496094 C-7.69931777 11.02662159 -4.80925822 6.87952835 -2.05859375 2.609375 C-1 1 -1 1 0 0 Z M-92 137 C-94.10071066 144.64768523 -89.89699687 151.71119105 -86.1875 158.3125 C-82.72394334 163.80009985 -78.92171982 167.66087841 -73 170.375 C-64.45545583 172.15511337 -57.23386102 170.00513137 -49.76171875 165.71484375 C-44.4403474 162.00538294 -40.66559721 157.30400808 -37 152 C-36.32710937 151.03126953 -36.32710937 151.03126953 -35.640625 150.04296875 C-33.96690699 147.4120216 -33.01055594 145.45390551 -32.9375 142.3125 C-34.72504844 138.4219534 -37.23133133 136.71702784 -41.16796875 135.12109375 C-57.91855636 129.60857923 -75.27266226 132.96607611 -92 137 Z " fill="#000000" transform="translate(1104,251)"/>
<path d="M0 0 C0.66 0 1.32 0 2 0 C2.21914062 0.74765625 2.43828125 1.4953125 2.6640625 2.265625 C4.67838423 8.62941053 4.67838423 8.62941053 8.9375 13.625 C11.85853458 14.93648491 13.8303416 15.71184924 17 16 C17.639375 16.07476562 18.27875 16.14953125 18.9375 16.2265625 C32.57953534 17.10223369 46.61280684 10.19070424 58.89331055 5.03540039 C65.41107451 2.36508189 71.76341815 0.07900395 78.875 1.625 C81.63778866 3.41268678 82.5495088 5.04860355 84 8 C85.02440599 17.27978208 83.73947128 26.94053382 82.75 36.1875 C82.64042969 37.36763672 82.53085938 38.54777344 82.41796875 39.76367188 C81.05138058 52.76064462 77.16248019 61.85498193 69 72 C68.45472656 72.71027344 67.90945313 73.42054688 67.34765625 74.15234375 C56.51634955 87.52596205 37.98700092 98.22998149 21 101 C18.2235601 101.10121739 15.4634664 101.03033411 12.6875 100.9375 C5.63599584 100.71936949 1.71635368 101.94658558 -4 106 C-19.71139235 115.8937757 -35.72299194 123.47435876 -53.3125 129.4375 C-54.55136963 129.86281006 -55.79023926 130.28812012 -57.06665039 130.72631836 C-65.37481904 133.45814188 -73.31325254 135.05461134 -82 136 C-82 135.34 -82 134.68 -82 134 C-75.16756323 129.03328561 -67.1993835 125.38261094 -59.75 121.4375 C-43.42558993 112.71451499 -27.13085949 103.70231525 -12 93 C-11.27039062 92.56300781 -10.54078125 92.12601562 -9.7890625 91.67578125 C-7.22810896 89.27698416 -7.09055049 87.25090255 -6.5 83.8125 C-6.38817383 83.17973145 -6.27634766 82.54696289 -6.16113281 81.89501953 C-5.90783602 80.44416536 -5.66265914 78.99187971 -5.42382812 77.53857422 C-4.93931602 74.63652535 -4.41514408 71.74273489 -3.890625 68.84765625 C-3.50907026 66.69034187 -3.1288621 64.53278889 -2.75 62.375 C-2.56244141 61.33190674 -2.37488281 60.28881348 -2.18164062 59.21411133 C-2.01341797 58.22306396 -1.84519531 57.2320166 -1.671875 56.2109375 C-1.44129395 54.88521729 -1.44129395 54.88521729 -1.20605469 53.53271484 C-0.92092424 50.0280427 -1.36504809 47.17240185 -3.04296875 44.07421875 C-8.04891647 33.22459328 -2.93310392 13.35228322 -1 2 C-0.67 1.34 -0.34 0.68 0 0 Z M67 38 C53.18233231 42.77277333 53.18233231 42.77277333 39.4375 47.75 C37.95056641 48.29914063 37.95056641 48.29914063 36.43359375 48.859375 C33.96127892 50.01814856 32.58305137 50.78475604 31 53 C30.42428504 55.50203648 30.42428504 55.50203648 30.3125 58.1875 C30.24675781 59.08855469 30.18101563 59.98960937 30.11328125 60.91796875 C30.07589844 61.60503906 30.03851562 62.29210937 30 63 C42.1478363 61.48152046 53.09380501 54.23079057 62 46.125 C62.51022705 45.66101807 63.0204541 45.19703613 63.54614258 44.71899414 C65.1059243 43.26208948 65.1059243 43.26208948 67 41 C67 40.01 67 39.02 67 38 Z M13.1875 62.5 C12.795625 62.995 12.40375 63.49 12 64 C13.12534105 65.35618499 13.12534105 65.35618499 16.0625 65.0625 C17.031875 65.041875 18.00125 65.02125 19 65 C19.33 63.68 19.66 62.36 20 61 C16.28263359 60.65099442 16.28263359 60.65099442 13.1875 62.5 Z " fill="#000000" transform="translate(1565,356)"/>
<path d="M0 0 C0.66 0 1.32 0 2 0 C2.29742131 8.17436498 1.3988603 16.04010997 0.25 24.125 C0.09273437 25.34832031 -0.06453125 26.57164063 -0.2265625 27.83203125 C-1.70356472 38.34147011 -4.43005949 46.30335113 -13 53 C-20.32719086 57.85813746 -28.15438 61.63489097 -36.16015625 65.2265625 C-37.02529846 65.61493286 -37.89044067 66.00330322 -38.78179932 66.40344238 C-48.49210033 70.72053925 -58.35499416 74.6300048 -68.25 78.5 C-70.15193013 79.24777562 -72.05378483 79.99574313 -73.95556641 80.74389648 C-87.25383978 85.96618715 -100.59948858 91.04587154 -114 96 C-144.11900297 105.3322475 -144.11900297 105.3322475 -168 124 C-168.99064358 126.80258375 -168.99064358 126.80258375 -169.5625 129.6875 C-170.67229551 134.78153034 -170.67229551 134.78153034 -174 137 C-175.20882588 130.12210329 -174.53156452 124.12728507 -173.58618164 117.25878906 C-173.31536347 115.27101754 -173.06867932 113.2800066 -172.82226562 111.2890625 C-171.41492915 100.76829997 -169.70875386 89.06248659 -161 82 C-156.48222969 79.02575174 -151.80594987 76.47407632 -147 74 C-145.92363281 73.43539062 -144.84726563 72.87078125 -143.73828125 72.2890625 C-134.65621943 67.79549881 -125.20701749 64.51962714 -115.65136719 61.1796875 C-102.10934005 56.40972341 -88.82443984 51.02845799 -75.52088928 45.63554382 C-70.60153855 43.64232884 -65.67350539 41.67231036 -60.73828125 39.71875 C-53.47902672 36.84461428 -46.23446533 33.93611249 -39 31 C-38.0733252 30.62681641 -37.14665039 30.25363281 -36.19189453 29.86914062 C-28.00184179 26.54256557 -20.38415129 22.95983003 -13.125 17.875 C-12.55910156 17.47909668 -11.99320313 17.08319336 -11.41015625 16.67529297 C-6.58162547 13.0820712 -3.4734966 8.68374151 -1.25 3.125 C-0.8375 2.09375 -0.425 1.0625 0 0 Z " fill="#000000" transform="translate(1495,97)"/>
<path d="M0 0 C0.66 0 1.32 0 2 0 C0.56732136 12.99291319 -5.68943749 22.75299559 -15.55078125 31.1796875 C-26.3805119 39.65003164 -38.23034004 45.97445955 -50.85546875 51.3359375 C-51.77204254 51.7264328 -52.68861633 52.1169281 -53.63296509 52.51925659 C-62.62040109 56.31511352 -71.71747452 59.76512753 -80.875 63.125 C-82.69575722 63.79752895 -84.5163904 64.47039376 -86.33691406 65.14355469 C-92.55424728 67.43913684 -98.776754 69.72050426 -105 72 C-106.17413452 72.43026489 -107.34826904 72.86052979 -108.5579834 73.30383301 C-133.28490023 82.36345802 -158.02289196 91.39287808 -182.78515625 100.35546875 C-242.59296087 121.94227672 -242.59296087 121.94227672 -301 147 C-301.68336426 147.31729065 -302.36672852 147.6345813 -303.07080078 147.96148682 C-336.62825745 163.56267307 -363.32160504 178.70829924 -380.58984375 212.55078125 C-382 215 -382 215 -384 216 C-385.00160662 201.22630239 -378.39550462 187.74092304 -369.2578125 176.51953125 C-363.86181905 170.49805067 -358.42402652 165.58401995 -351.625 161.1875 C-350.83536865 160.67106934 -350.0457373 160.15463867 -349.23217773 159.62255859 C-279.4117473 114.32948879 -196.40807916 88.43560884 -118.28125 61.21484375 C-53.27559011 42.10490326 -53.27559011 42.10490326 -1.375 1.6875 C-0.694375 0.8521875 -0.694375 0.8521875 0 0 Z " fill="#000000" transform="translate(1506,20)"/>
<path d="M0 0 C1.56015786 6.8948912 0.38886263 13.27349807 -0.6875 20.1875 C-0.93016602 21.9499707 -0.93016602 21.9499707 -1.17773438 23.74804688 C-1.43586914 25.4409082 -1.43586914 25.4409082 -1.69921875 27.16796875 C-1.85221436 28.19172607 -2.00520996 29.2154834 -2.1628418 30.27026367 C-3.19535542 33.63699881 -4.21962778 34.84317236 -7 37 C-9.49917567 38.27112626 -11.93578666 39.40120017 -14.515625 40.4765625 C-15.26696716 40.79924606 -16.01830933 41.12192963 -16.79241943 41.45439148 C-18.42108666 42.15295944 -20.05155387 42.84734253 -21.68359375 43.53799438 C-26.09504274 45.40647091 -30.49144741 47.30988961 -34.890625 49.20703125 C-35.80372437 49.59974716 -36.71682373 49.99246307 -37.65759277 50.39707947 C-81.09823524 67.95439371 -81.09823524 67.95439371 -121 92 C-121.5273877 92.40009277 -122.05477539 92.80018555 -122.59814453 93.21240234 C-144.45707944 110.04789461 -152.4774763 132.61861175 -157 159 C-157.99 159 -158.98 159 -160 159 C-163.37692193 152.24615615 -159.05500889 139.58115703 -158.00805664 132.1159668 C-157.7956756 130.58983191 -157.58729004 129.06313525 -157.38305664 127.53588867 C-155.59994768 114.20926849 -153.59001055 100.63452845 -147.1875 88.625 C-146.84203125 87.95782959 -146.4965625 87.29065918 -146.140625 86.60327148 C-143.29634973 81.2539763 -140.00236543 76.55380245 -136 72 C-135.12988281 70.9171875 -135.12988281 70.9171875 -134.2421875 69.8125 C-112.11656513 43.15066217 -73.29681126 30.55665402 -42.48535156 17.08746338 C-39.9254103 15.96736334 -37.36686855 14.84411538 -34.80859375 13.72021484 C-30.51373402 11.83413909 -26.21597232 9.95483743 -21.915802 8.0809021 C-20.27046561 7.36329482 -18.62582514 6.64408968 -16.98190308 5.92324829 C-14.69729662 4.92253892 -12.4096961 3.92903008 -10.12109375 2.9375 C-9.10178772 2.48874763 -9.10178772 2.48874763 -8.06188965 2.03092957 C-5.19279201 0.79607515 -3.16022392 0 0 0 Z " fill="#000000" transform="translate(1091,219)"/>
<path d="M0 0 C3.52208887 2.88889984 4.60208287 5.06090298 5.4140625 9.5078125 C5.71957031 11.11269531 5.71957031 11.11269531 6.03125 12.75 C6.32515625 14.420625 6.32515625 14.420625 6.625 16.125 C6.82867188 17.21554687 7.03234375 18.30609375 7.2421875 19.4296875 C7.64549341 21.59099354 8.0419219 23.75359528 8.43115234 25.91748047 C8.95819668 28.77347263 9.54094644 31.61167725 10.140625 34.453125 C10.83626062 37.89238642 11.22566065 41.10187733 11.125 44.625 C11.10695313 45.46289062 11.08890625 46.30078125 11.0703125 47.1640625 C11.04710937 47.76992188 11.02390625 48.37578125 11 49 C8.22788574 48.10093592 5.47841562 47.19828513 2.78515625 46.08203125 C-10.36622567 40.79310878 -24.61152029 38.0268171 -38.26171875 42.7890625 C-46.05785348 46.204512 -51.00737795 51.95226515 -54.2734375 59.69140625 C-59.27231938 75.57495029 -56.85305105 95.98982074 -53.65625 112.08203125 C-52.96768162 116.19294845 -52.88835731 119.84596173 -53 124 C-53.99 124 -54.98 124 -56 124 C-70.29869593 68.92959396 -70.29869593 68.92959396 -71 46 C-71.03996094 45.113125 -71.07992187 44.22625 -71.12109375 43.3125 C-71.48187329 29.05109684 -69.98154566 16.6400104 -61.75 4.75 C-45.86363428 -11.13636572 -19.20298566 -10.23523773 0 0 Z " fill="#000000" transform="translate(676,256)"/>
<path d="M0 0 C0.65540771 0.3196875 1.31081543 0.639375 1.98608398 0.96875 C6.06797551 3.10189179 8.69332608 5.04967182 11.0625 9 C11.54703947 12.45942292 11.38885814 15.84948292 11.234375 19.33203125 C11.20651917 20.32377853 11.17866333 21.31552582 11.14996338 22.33732605 C11.05679115 25.49667065 10.9350369 28.65417141 10.8125 31.8125 C10.74420563 33.95762301 10.67777761 36.10280631 10.61328125 38.24804688 C10.45131671 43.49958913 10.26589294 48.74990786 10.0625 54 C5.5640972 53.26402492 3.6052615 51.86524069 0.0625 49 C-2.4754853 47.63301429 -5.09843559 46.50247612 -7.75 45.375 C-8.42353516 45.0759375 -9.09707031 44.776875 -9.79101562 44.46875 C-20.11640905 40.00264681 -31.42320404 37.64111123 -42.3125 41.625 C-50.42564508 45.39886165 -55.61402136 50.67495843 -58.9375 59 C-64.31504123 74.97852809 -66.40655821 91.26542055 -65.86450195 108.07641602 C-65.76366162 112.20802897 -66.06980524 115.28649752 -67.9375 119 C-75.80441227 111.13308773 -72.1606297 87.75022543 -72.17773438 77.47387695 C-72.18741033 73.96997056 -72.21849881 70.46665937 -72.25 66.96289062 C-72.47764133 18.08177514 -72.47764133 18.08177514 -57.25 1.6875 C-40.43775929 -13.98492778 -18.77352684 -9.26502832 0 0 Z " fill="#000000" transform="translate(164.9375,206)"/>
<path d="M0 0 C21.85870813 20.80578385 35.63351799 58.21073864 36.91796875 88.07421875 C36.58699925 101.495032 36.58699925 101.495032 32.83984375 105.2421875 C32.68128906 104.53578125 32.52273438 103.829375 32.359375 103.1015625 C31.69743494 100.1904891 31.01954809 97.28349263 30.3359375 94.37744141 C29.99617388 92.91505331 29.66316782 91.45108336 29.3359375 89.98583984 C24.16797964 66.88793928 15.531222 40.70664011 -1.16015625 23.2421875 C-1.72089844 22.65308594 -2.28164063 22.06398438 -2.859375 21.45703125 C-8.16387041 16.42456125 -14.55316387 13.67751417 -21.78515625 12.8046875 C-30.4109129 13.92284114 -36.45555064 17.62189797 -42.16015625 24.2421875 C-47.54779636 33.04500534 -50.52612222 40.87186754 -48.6171875 51.171875 C-45.19203063 64.84034139 -38.11196803 77.15280168 -31.14160156 89.29418945 C-21.01568546 106.98397382 -15.1165708 127.54274029 -14.921875 148 C-14.91380325 148.82490936 -14.90573151 149.64981873 -14.89741516 150.49972534 C-14.88365107 152.23937935 -14.87289499 153.9790595 -14.86499023 155.71875 C-14.85350401 157.47371505 -14.83310567 159.22864609 -14.8034668 160.98339844 C-14.38434865 185.86824547 -14.38434865 185.86824547 -20.7956543 193.08251953 C-21.24593994 193.46520996 -21.69622559 193.84790039 -22.16015625 194.2421875 C-24.09204102 193.52880859 -24.09204102 193.52880859 -26.16015625 192.2421875 C-26.90209961 190.18603516 -26.90209961 190.18603516 -27.25 187.65625 C-27.39163574 186.73102539 -27.53327148 185.80580078 -27.67919922 184.85253906 C-27.81729004 183.86737305 -27.95538086 182.88220703 -28.09765625 181.8671875 C-29.46114705 173.40836844 -31.11689729 165.8807642 -35.16015625 158.2421875 C-35.83884766 156.92734375 -35.83884766 156.92734375 -36.53125 155.5859375 C-39.04269321 151.06670094 -41.66012772 147.61654405 -45.47265625 144.1171875 C-48.55594267 141.15770416 -50.19884516 139.03074891 -50.3515625 134.5390625 C-49.94969314 129.71663019 -49.11606825 124.98224699 -48.16015625 120.2421875 C-44.65586019 120.51078773 -43.30450866 121.10744333 -40.6953125 123.54296875 C-28.97774048 137.81508253 -23.4393846 152.91839116 -21.16015625 171.2421875 C-20.83015625 171.2421875 -20.50015625 171.2421875 -20.16015625 171.2421875 C-19.08033333 144.48657527 -26.66818262 122.84192294 -39.71777344 99.81201172 C-53.99125575 74.38163345 -57.42909217 49.06698175 -51.34765625 20.4140625 C-47.86300368 9.08894166 -41.19692768 0.46425036 -31.03515625 -5.6328125 C-20.07700838 -9.92078341 -8.99147421 -7.31675116 0 0 Z " fill="#000000" transform="translate(728.16015625,11.7578125)"/>
<path d="M0 0 C3.99435688 5.99153532 2.41503394 15.50305662 2.078125 22.38671875 C1.0656034 26.65172718 -0.86913379 28.5582292 -4.125 31.25 C-4.66737305 31.72131348 -5.20974609 32.19262695 -5.76855469 32.67822266 C-7.41317231 34.09726809 -9.07740646 35.48910783 -10.75 36.875 C-11.63429688 37.6175 -12.51859375 38.36 -13.4296875 39.125 C-16.1827381 41.40107831 -18.96628157 43.636546 -21.75 45.875 C-22.99067259 46.89450922 -24.23018463 47.91543183 -25.46875 48.9375 C-32.83995806 55.00116068 -40.25619348 60.88399592 -48.14160156 66.27294922 C-51.58752505 68.65223847 -51.58752505 68.65223847 -53.66015625 72.18359375 C-53.70462891 73.02083984 -53.70462891 73.02083984 -53.75 73.875 C-54.41 73.875 -55.07 73.875 -55.75 73.875 C-55.75 73.215 -55.75 72.555 -55.75 71.875 C-56.67039062 72.39449219 -57.59078125 72.91398437 -58.5390625 73.44921875 C-71.99690527 80.9124648 -87.15213072 88.66551926 -102.99609375 85.4140625 C-108.95015768 83.44098088 -113.84072765 80.08528094 -117.07421875 74.6484375 C-121.46385124 64.94503936 -120.48938158 53.98703817 -117.75 43.875 C-116.76 43.38 -116.76 43.38 -115.75 42.875 C-115.71261719 43.74382812 -115.67523438 44.61265625 -115.63671875 45.5078125 C-115.18700868 53.39096553 -114.82122418 58.73065144 -109.125 64.5625 C-103.01165976 69.20383202 -96.45280433 70.54740534 -88.91015625 69.58203125 C-79.58933884 67.49665677 -70.48452604 63.75063567 -62.3515625 58.7578125 C-60.75 57.875 -60.75 57.875 -58.75 57.875 C-58.42 55.235 -58.09 52.595 -57.75 49.875 C-58.85794922 50.41640625 -58.85794922 50.41640625 -59.98828125 50.96875 C-67.05095621 54.19945265 -72.9651512 56.04078435 -80.75 54.875 C-84.28624311 53.54890883 -85.34411517 52.5170721 -87.34765625 49.34765625 C-89.14050386 44.90798626 -89.22825619 41.17633366 -89.1875 36.4375 C-89.2174707 35.20676758 -89.2174707 35.20676758 -89.24804688 33.95117188 C-89.24259466 27.11954172 -87.44988296 23.23178879 -83.14453125 17.87890625 C-79.96260694 14.97981965 -77.55390784 13.45213078 -73.1875 13.1875 C-69.4696537 13.48417025 -66.85397341 14.43384708 -64.1015625 17.109375 C-60.83395515 21.37804125 -57.75 26.42739017 -57.75 31.875 C-52.30316302 29.63218477 -48.1116106 26.66759532 -43.6875 22.8125 C-10.02839082 -6.44682267 -10.02839082 -6.44682267 0 0 Z M-16.3125 18.25 C-16.93455322 18.61577148 -17.55660645 18.98154297 -18.19750977 19.35839844 C-23.08425796 22.30836773 -27.47911191 25.66501256 -31.8203125 29.375 C-35.3366695 32.37562464 -38.94323973 35.25011404 -42.5625 38.125 C-47.00265487 41.65781638 -51.40346795 45.22737433 -55.75 48.875 C-55.09 50.525 -54.43 52.175 -53.75 53.875 C-44.24446567 48.41393708 -36.08318724 41.56373908 -27.72265625 34.52734375 C-25.08895332 32.32129159 -22.42096033 30.1607769 -19.75 28 C-14.96158011 24.09153476 -10.32980681 20.02509654 -5.75 15.875 C-9.9244516 14.00829191 -12.72619675 16.09577673 -16.3125 18.25 Z M-80.75 33.875 C-81.69436349 36.04031168 -81.69436349 36.04031168 -81.75 37.875 C-77.0732956 40.68318278 -72.93578638 39.78816755 -67.75 38.875 C-64.78624851 37.94605046 -64.78624851 37.94605046 -62.75 36.875 C-64.24531636 33.06874018 -66.33980056 31.09559499 -69.75 28.875 C-74.78570736 27.71291369 -77.30037423 30.42537423 -80.75 33.875 Z " fill="#000000" transform="translate(414.75,184.125)"/>
<path d="M0 0 C8.24078341 7.85656682 8.24078341 7.85656682 10.5625 12.5 C10.57907426 14.98390378 10.53564268 17.43393671 10.44140625 19.9140625 C10.40598976 21.00852188 10.40598976 21.00852188 10.36985779 22.12509155 C10.29320246 24.45859139 10.20918657 26.79176089 10.125 29.125 C10.07178115 30.70571293 10.01904074 32.28644205 9.96679688 33.8671875 C9.83758487 37.74500138 9.70177041 41.62253486 9.5625 45.5 C5.5625 45.5 5.5625 45.5 3.37109375 43.55859375 C2.58863281 42.69363281 1.80617188 41.82867187 1 40.9375 C-6.38785731 33.23270799 -15.36063482 26.62607463 -26.2734375 25.54296875 C-35.94773097 25.35087989 -44.2708221 30.30560628 -51.1875 36.75 C-65.5033536 52.17743753 -68.58095048 77.19977638 -69.4375 97.5 C-70.7575 97.5 -72.0775 97.5 -73.4375 97.5 C-73.48780364 92.13298839 -73.52363563 86.76612081 -73.54736328 81.39892578 C-73.55727871 79.58184411 -73.57081512 77.76477775 -73.58837891 75.94775391 C-73.82470993 50.8271564 -72.9676723 20.3280434 -54.20703125 1.1015625 C-37.31571759 -14.18638143 -17.4871782 -15.35965801 0 0 Z " fill="#000000" transform="translate(1622.4375,73.5)"/>
<path d="M0 0 C2.10104044 3.38049175 2.09053038 5.34046867 1.34765625 9.20703125 C1.15131592 10.25342773 0.95497559 11.29982422 0.75268555 12.37792969 C0.4110437 14.07804199 0.4110437 14.07804199 0.0625 15.8125 C-0.16332764 16.99360352 -0.38915527 18.17470703 -0.62182617 19.39160156 C-1.91472892 26.01313225 -3.34422758 32.58825935 -4.8984375 39.15234375 C-5.05729935 39.82936844 -5.21616119 40.50639313 -5.37983704 41.20393372 C-6.15112388 44.48490157 -6.94041348 47.75800862 -7.76342773 51.02661133 C-10.62327092 62.95966163 -12.50262495 75.92741882 -6 87 C-2.52701339 92.18445839 1.30579951 95.45794621 7 98 C10.62840828 98.58054533 12.24111568 98.45831148 15.38671875 96.55859375 C18.98501055 93.03560253 20.65826427 89.12223071 22.6875 84.5625 C23.07744141 83.71623047 23.46738281 82.86996094 23.86914062 81.99804688 C25.68319958 78.03812673 27.43815422 74.06748072 29 70 C29.99 70 30.98 70 32 70 C33.30736373 73.9220912 32.68206577 77.27897491 32.1796875 81.296875 C32.0791507 82.12270081 31.97861389 82.94852661 31.87503052 83.79937744 C31.65831554 85.5550227 31.43782149 87.31020493 31.21386719 89.06494141 C30.88174285 91.69657216 30.57307067 94.33023269 30.265625 96.96484375 C28.35572963 112.54143512 24.92183014 131.81263006 13.125 143.25 C7.78278597 146.24163986 3.31688687 146.65035421 -2.5625 145 C-11.21160958 139.96779079 -17.42292052 133.13590352 -21.3125 123.875 C-24.06509605 112.3641438 -23.59403526 100.57626693 -21.78515625 88.97265625 C-21.65401932 88.11799774 -21.52288239 87.26333923 -21.38777161 86.38278198 C-19.81927654 76.45531716 -17.853036 66.6081395 -15.83081055 56.76464844 C-15.18986688 53.63655147 -14.56227991 50.50597114 -13.93554688 47.375 C-11.86373942 37.14595807 -9.60516378 26.9868938 -6.92578125 16.8984375 C-6.69328171 16.00283112 -6.46078217 15.10722473 -6.22123718 14.18447876 C-4.77671372 8.91746058 -2.91569977 4.6232821 0 0 Z " fill="#000000" transform="translate(977,71)"/>
<path d="M0 0 C7.26816529 2.80815477 11.99197505 10.55531586 15.75 17.0625 C18.56429536 25.50538609 17.52363287 38.71772444 14.6875 47.0625 C12.06724374 51.11967099 9.2726093 53.3523377 4.75 55.0625 C0.78846446 55.62735773 -2.02178429 54.91083115 -5.30859375 52.640625 C-7.03816111 51.17901878 -8.66681466 49.68031751 -10.25 48.0625 C-14.51004463 49.45724771 -16.94852885 51.43550659 -20.125 54.5625 C-46.85699637 79.36979263 -82.96054677 91.23205638 -118.9375 91.25 C-120.21044922 91.26224609 -121.48339844 91.27449219 -122.79492188 91.28710938 C-143.73690129 91.31904935 -143.73690129 91.31904935 -150.25 88.0625 C-150.25 87.4025 -150.25 86.7425 -150.25 86.0625 C-149.21782349 85.99518677 -149.21782349 85.99518677 -148.16479492 85.92651367 C-107.72877488 83.22494748 -51.57266838 75.72898711 -22.25 44.0625 C-19.76782009 41.15266142 -18.81032122 39.08202909 -18.30078125 35.296875 C-18.17509766 34.40742188 -18.04941406 33.51796875 -17.91992188 32.6015625 C-17.80197266 31.68117187 -17.68402344 30.76078125 -17.5625 29.8125 C-17.36817383 28.40871094 -17.36817383 28.40871094 -17.16992188 26.9765625 C-16.85260887 24.67310511 -16.54637894 22.36872844 -16.25 20.0625 C-14.6 20.0625 -12.95 20.0625 -11.25 20.0625 C-11.08395264 19.5277002 -10.91790527 18.99290039 -10.74682617 18.44189453 C-9.98808789 16.02014298 -9.21302915 13.60392417 -8.4375 11.1875 C-8.17646484 10.34574219 -7.91542969 9.50398437 -7.64648438 8.63671875 C-7.38544922 7.83105469 -7.12441406 7.02539062 -6.85546875 6.1953125 C-6.61981201 5.45168457 -6.38415527 4.70805664 -6.14135742 3.94189453 C-4.79082106 1.094338 -3.12345763 0.08676271 0 0 Z M-2.25 22.0625 C-4.47966747 23.88453581 -4.47966747 23.88453581 -4.5625 26.5 C-4.42279702 29.02239758 -4.42279702 29.02239758 -3.25 30.8125 C-0.08384111 32.79134931 3.05293552 32.75946193 6.75 33.0625 C6.75 28.78487071 6.57812688 28.31934521 3.9375 25.3125 C3.41542969 24.69890625 2.89335938 24.0853125 2.35546875 23.453125 C0.72606413 21.73513977 0.72606413 21.73513977 -2.25 22.0625 Z " fill="#000000" transform="translate(866.25,166.9375)"/>
<path d="M0 0 C5.28050786 5.30467494 6.15202959 14.45765356 6.4375 21.625 C5.97442578 35.61789481 -3.78613779 45.51551231 -13.31640625 54.6875 C-26.06867511 66.47675151 -41.68900393 74.31716991 -57.75 80.5625 C-58.41773438 80.82651611 -59.08546875 81.09053223 -59.7734375 81.36254883 C-63.17072272 82.62211329 -65.56394033 83.44904537 -69 82 C-65.27222349 77.48466507 -60.32165624 75.42888562 -55.1875 72.875 C-36.34876423 63.24357898 -17.33513605 51.41959608 -6 33 C-14.47361211 35.02138507 -22.27357739 38.02758507 -30.25 41.5 C-31.94769531 42.22896484 -31.94769531 42.22896484 -33.6796875 42.97265625 C-36.78916937 44.30893242 -39.89486684 45.65365871 -43 47 C-45.33224343 48.00257436 -47.66595622 49.00162289 -50 50 C-55.05632761 40.98172801 -55.35682873 30.16961881 -55 20 C-9.45254621 -3.6218519 -9.45254621 -3.6218519 0 0 Z " fill="#000000" transform="translate(1192,90)"/>
<path d="M0 0 C0.66 0 1.32 0 2 0 C1.53267463 18.41261939 -2.85927594 32.10384881 -15.94921875 45.578125 C-23.64126662 51.68448822 -32.9321164 55.46403007 -41.875 59.375 C-43.00905273 59.87612305 -44.14310547 60.37724609 -45.31152344 60.89355469 C-52.34124628 63.99427405 -59.39715344 67.03250342 -66.4609375 70.0546875 C-68.09914621 70.75726566 -69.73732976 71.45990248 -71.37548828 72.16259766 C-74.54496643 73.52193638 -77.7182039 74.87190913 -80.89404297 76.21630859 C-88.14516506 79.30634087 -95.28363703 82.52454634 -102.2578125 86.203125 C-102.85781067 86.51703186 -103.45780884 86.83093872 -104.07598877 87.15435791 C-113.48192236 92.24022733 -121.56310372 99.68931115 -125 110 C-127.0625 110.6875 -127.0625 110.6875 -129 111 C-127.44152496 95.80486836 -124.70583953 83.42806279 -112.6875 73.0625 C-98.59829676 62.48370135 -81.54737639 56.16298578 -65.4375 49.375 C-63.28941257 48.46425121 -61.14162455 47.55279591 -58.99414062 46.640625 C-57.94518616 46.19522873 -56.89623169 45.74983246 -55.81549072 45.29093933 C-54.26520172 44.63258842 -54.26520172 44.63258842 -52.68359375 43.9609375 C-50.66048215 43.10196851 -48.63737018 42.24300039 -46.61425781 41.3840332 C-45.6628894 40.97980133 -44.711521 40.57556946 -43.73132324 40.15908813 C-41.9839437 39.41755492 -40.23587917 38.67763246 -38.48693848 37.93978882 C-36.28404164 37.0092924 -34.08492372 36.07042138 -31.88671875 35.12890625 C-30.10527466 34.37202515 -30.10527466 34.37202515 -28.2878418 33.59985352 C-15.88951589 27.56686698 -8.4277069 18.99798277 -3.078125 6.515625 C-2.12695602 4.29623071 -1.10347056 2.14675181 0 0 Z " fill="#000000" transform="translate(617,87)"/>
<path d="M0 0 C0.66 0 1.32 0 2 0 C2.71783984 15.76588978 0.26739471 30.93535697 -9.625 43.6875 C-22.89112427 57.80620295 -42.13659429 66.13927452 -59.125 74.8125 C-69.52814069 80.1253122 -79.91699779 85.44296158 -90.125 91.125 C-91.45362061 91.84973511 -91.45362061 91.84973511 -92.80908203 92.58911133 C-100.6102287 96.99631173 -108.18359125 102.34623736 -112.4375 110.4375 C-114.83941606 114.91970803 -114.83941606 114.91970803 -117 116 C-117.80734444 104.80930898 -115.4728143 94.11107661 -108.72265625 84.97265625 C-97.44816957 72.06196289 -78.16071434 65.01904331 -63.265625 57.32519531 C-39.85912726 45.44180188 -39.85912726 45.44180188 -18 31 C-16.75476563 30.08734375 -16.75476563 30.08734375 -15.484375 29.15625 C-6.63900383 21.4791354 -1.95325775 12.58106758 -1 1 C-0.67 0.67 -0.34 0.34 0 0 Z " fill="#000000" transform="translate(298,64)"/>
<path d="M0 0 C0.99 0 1.98 0 3 0 C2.85737588 1.5627962 2.71074489 3.12522696 2.5625 4.6875 C2.48128906 5.55761719 2.40007812 6.42773438 2.31640625 7.32421875 C2 10 2 10 1.49609375 12.4296875 C-0.5480731 23.02072522 1.14204236 30.82880916 5.98046875 40.13671875 C8.11003637 43.15600901 9.65423926 44.49361483 13 46 C16.7578997 46.13918147 19.02143184 45.82832335 21.93359375 43.36328125 C23.16125715 42.10499007 24.35870709 40.8162988 25.51953125 39.49609375 C26.00808594 39.00238281 26.49664063 38.50867188 27 38 C27.66 38 28.32 38 29 38 C28.36424716 45.41411904 27.62258514 52.804977 26.6875 60.1875 C26.58244141 61.12013672 26.47738281 62.05277344 26.36914062 63.01367188 C25.42939424 70.32109866 23.82491807 76.43189267 18.25 81.5 C14.26205476 83.34059011 11.31289075 83.84006105 7 83 C-0.54007186 79.22996407 -5.25618716 72.79820492 -8 65 C-11.26738891 51.96183414 -8.52503101 37.82348711 -6.125 24.875 C-5.85162028 23.32573989 -5.57948119 21.77626033 -5.30859375 20.2265625 C-5.04280065 18.73156878 -4.77591454 17.23676888 -4.5078125 15.7421875 C-4.3868924 15.06606415 -4.26597229 14.3899408 -4.14138794 13.69332886 C-1.96003855 1.96003855 -1.96003855 1.96003855 0 0 Z " fill="#000000" transform="translate(1361,217)"/>
<path d="M0 0 C2.5 1.625 2.5 1.625 3.5 3.625 C5.24592237 14.4532458 4.98892789 26.34474559 -1.5 35.625 C-3.65382091 38.2063584 -5.87768218 40.68654109 -8.18359375 43.1328125 C-10.57839627 45.64660071 -10.57839627 45.64660071 -12.875 48.6015625 C-15.57387274 51.87238523 -18.67505046 54.34903073 -22.0625 56.875 C-22.62646484 57.308125 -23.19042969 57.74125 -23.77148438 58.1875 C-29.5483713 62.56577219 -29.5483713 62.56577219 -32.5 63.625 C-33.985 63.13 -33.985 63.13 -35.5 62.625 C-31.57616772 58.46011317 -27.46083008 54.71212267 -23 51.125 C-16.00857186 45.43851144 -10.53737397 40.0167024 -5.5625 32.5 C-5.16015137 31.9016333 -4.75780273 31.3032666 -4.34326172 30.68676758 C-2.12338912 27.20606537 -0.99121284 24.77357225 -1.5 20.625 C-5.97686448 19.13271184 -10.92808723 18.68328934 -15.39697266 20.31958008 C-20.4963713 22.87980719 -24.76584728 25.95949828 -29.125 29.625 C-29.80723633 30.18590332 -30.48947266 30.74680664 -31.19238281 31.32470703 C-34.68850058 34.21389358 -38.12364667 37.16020192 -41.5078125 40.1796875 C-42.13864746 40.73785156 -42.76948242 41.29601562 -43.41943359 41.87109375 C-44.61782241 42.93746481 -45.8061635 44.01526221 -46.98291016 45.10546875 C-48.609375 46.5546875 -48.609375 46.5546875 -51.5 48.625 C-53.890625 48.4453125 -53.890625 48.4453125 -55.5 47.625 C-55.76815485 32.87648347 -55.76815485 32.87648347 -53.0390625 28.03125 C-50.98251719 25.98309876 -48.85764702 24.31718214 -46.5 22.625 C-44.7887928 21.19092227 -43.08063211 19.75320404 -41.375 18.3125 C-39.41869754 16.74745803 -37.46019922 15.18515856 -35.5 13.625 C-34.3325418 12.66763109 -33.16590657 11.70925792 -32 10.75 C-12.70172896 -4.98996495 -12.70172896 -4.98996495 0 0 Z " fill="#000000" transform="translate(118.5,128.375)"/>
<path d="M0 0 C0.66 0 1.32 0 2 0 C0.79266153 8.7654736 -0.40681263 17.3868649 -3.0012207 25.86352539 C-7.83676948 41.79795736 -9.19008087 62.48234478 -2.0859375 77.99609375 C-0.06893941 81.41515149 2.36961587 83.48030432 6 85 C10.54650465 85.579026 10.54650465 85.579026 14.6171875 83.890625 C17.17309594 80.39610611 17.3808857 76.01736642 18.15625 71.8359375 C18.4346875 70.90007812 18.713125 69.96421875 19 69 C19.99 68.67 20.98 68.34 22 68 C21.67988003 76.30104196 21.12024806 84.49598131 19.6875 92.6875 C19.46449219 93.97011719 19.24148438 95.25273437 19.01171875 96.57421875 C17.92250935 100.26239113 16.69076512 102.27894485 14 105 C9.08705852 106.63764716 4.08203111 106.85174 -0.75 104.875 C-8.944851 98.0459575 -11.15016877 89.2832833 -13 79 C-14.85943418 56.8774407 -10.58283134 34.84859168 -5.375 13.4375 C-5.08459839 12.24302246 -5.08459839 12.24302246 -4.78833008 11.02441406 C-3.72455729 6.94204541 -2.54367981 3.3983024 0 0 Z " fill="#000000" transform="translate(239,167)"/>
<path d="M0 0 C0.66 0.33 1.32 0.66 2 1 C1.9278125 1.78117187 1.855625 2.56234375 1.78125 3.3671875 C-1.81335657 32.26281953 -1.81335657 32.26281953 7.4375 58.375 C9.85726998 60.19242743 9.85726998 60.19242743 12.5625 60.1875 C17.77043102 57.65030284 19.72515405 51.70083315 21.97265625 46.63671875 C23 45 23 45 26 44 C23.58541667 69.03541667 23.58541667 69.03541667 16 78 C13.12075508 80.34885769 11.72527067 81 8 81 C2.16356504 79.05452168 -0.4370992 74.67631646 -3.10546875 69.453125 C-5.94280241 61.67214012 -6.41878358 53.9797917 -6.4375 45.75 C-6.44064209 44.5957251 -6.44378418 43.4414502 -6.44702148 42.25219727 C-6.27699179 29.51705887 -5.73363863 11.46727727 0 0 Z " fill="#000000" transform="translate(134,498)"/>
<path d="M0 0 C1.33044466 3.99133399 0.34920068 7.17255588 -0.4375 11.1875 C-3.49450795 27.56023214 -3.49450795 27.56023214 1 43 C3.50566287 44.96873511 5.2950279 45.03687849 8.5 45.4375 C12.06948432 45.34113661 12.06948432 45.34113661 14.1875 42.9375 C16.2085838 39.6619504 18.14752828 36.37414492 20 33 C20.33 33 20.66 33 21 33 C21.50260244 43.49880651 21.07631818 54.63707852 14 63 C11.3791054 65.80810136 10.09114098 65.9895412 6.1875 66.4375 C1.69709166 66.23681136 -1.58072232 64.91593224 -5 62 C-11.37298471 53.78220393 -10.33338121 43.98213046 -9.11254883 34.13256836 C-8.19609819 27.59971783 -6.91722945 21.14197014 -5.5625 14.6875 C-5.35737793 13.69073242 -5.15225586 12.69396484 -4.94091797 11.66699219 C-4.7348291 10.72887695 -4.52874023 9.79076172 -4.31640625 8.82421875 C-4.13537354 7.98979248 -3.95434082 7.15536621 -3.76782227 6.2956543 C-2.91447911 3.74430748 -1.71501113 2.05464654 0 0 Z " fill="#000000" transform="translate(855,416)"/>
</svg>
